<svg width="428" height="261" viewBox="0 0 428 261" fill="none" xmlns="http://www.w3.org/2000/svg">
<path d="M-70.819 258.376C-8.83542 226.774 18.3247 189.735 35.8793 157.409L36.7137 155.862C41.1395 147.607 44.9693 139.683 48.6403 132.218C52.0754 125.233 55.374 118.644 58.8702 112.628L59.5728 111.433C66.9859 98.9473 75.3309 88.9903 88.0122 82.5414L88.6185 82.2374C94.708 79.2229 101.059 78.493 106.987 79.5791L109.044 79.9563L108.027 81.7845C104.982 87.2557 102.186 92.676 99.9338 97.92L99.4908 98.9666C94.009 112.104 92.0974 123.202 92.5969 131.94L92.5978 131.941C93.0901 140.436 95.8391 146.647 99.9501 150.189L100.353 150.523C104.469 153.827 110.108 154.326 115.357 151.615L115.863 151.343C121.156 148.385 126.2 142.381 130.113 132.942L130.488 132.017L130.833 131.131C137.784 112.85 133.983 97.1141 125.172 87.46L124.742 86.9976L124.741 86.9971L124.156 86.3997C121.188 83.4736 117.578 81.4011 113.685 79.7724L112.079 79.1011L112.981 77.6117C121.796 63.0668 133.126 48.5785 145.567 36.7832C157.603 25.3716 170.768 16.3966 183.779 12.4052L185.037 12.0345C214.119 3.82241 236.515 5.79458 252.2 13.8922L254.574 15.1171L252.292 16.5062C242.492 22.4741 233.787 30.4047 227.105 41.4634L226.464 42.5437C210.517 69.9575 208.332 96.2592 215.033 111.727L215.032 111.726C218.359 119.402 224.165 124.365 231.31 124.835C238.323 125.291 246.524 121.67 255.449 112.954L256.315 112.096L256.315 112.095C281.015 87.2002 286.764 55.6876 274.914 33.2091L274.336 32.1458C270.996 26.1723 266.292 20.9634 260.428 16.6668L258.387 15.1719L260.678 14.0983C264.125 12.4845 267.68 11.0088 271.4 9.80845L272.146 9.57279C289.441 4.19852 309.075 3.31811 328.507 4.23643L330.387 4.33044C349.148 5.3238 367.835 7.91956 384.022 9.58206L387.225 9.90121L387.226 9.9017C395.722 10.7214 403.438 11.2811 410.188 11.0966C416.27 10.9304 421.467 10.1594 425.693 8.49479L424.804 6.58766C420.972 8.03444 415.951 8.71133 410.151 8.88406C404.408 9.05506 397.777 8.73528 390.56 8.1076L387.432 7.81968C371.036 6.23998 351.981 3.4943 332.399 2.34937L330.502 2.24427C310.6 1.18843 290.437 1.87585 272.386 7.3125L271.528 7.57516C266.478 9.14229 261.644 11.2219 256.963 13.6483L256.234 14.0267L255.522 13.6156C239.258 4.20736 215.42 1.28436 184.473 10.0138L184.472 10.0125C170.389 13.9884 156.362 23.3038 143.602 35.438C130.855 47.5609 119.452 62.4235 110.607 77.3642L110.043 78.3169L108.966 78.0585C102.325 76.4621 95.1758 76.8616 88.3528 80.0453L87.6936 80.3627L87.6928 80.3622C74.7008 86.7826 65.9702 96.8532 58.4972 109.169L57.7777 110.368C53.9566 116.806 50.4343 123.817 46.7581 131.292C43.3179 138.288 39.7441 145.69 35.6912 153.34L34.8738 154.873C17.3765 187.502 -9.04021 224.533 -71.7597 256.511L-70.819 258.376ZM228.272 43.5942C235.39 31.3577 244.809 22.9461 255.56 16.908L256.362 16.4574L257.127 16.9679C263.466 21.1953 268.609 26.4313 272.176 32.5714L272.517 33.1685C284.435 54.4809 279.508 84.9396 255.969 109.458L254.834 110.621C245.902 119.621 237.84 123.161 231.449 122.745C225.154 122.335 220.371 118.339 217.249 111.556L216.953 110.891C210.86 96.8273 212.611 71.2377 227.55 44.8515L228.272 43.5942ZM108.469 85.1983C109.158 84.024 109.75 83.1181 110.371 82.0258L111.014 80.8971L112.223 81.3709C116.088 82.8852 119.824 84.972 122.927 88.1303L123.225 88.4391C131.836 97.5159 135.739 112.373 128.881 130.391L128.547 131.252C124.731 140.851 119.688 146.817 114.847 149.518L114.846 149.516C112.445 150.859 110.101 151.497 107.837 151.374C105.703 151.258 103.757 150.473 102.008 149.16L101.66 148.89C98.0724 146.01 95.3427 140.461 94.741 132.592L94.6901 131.823L94.6892 131.822C94.2267 123.772 95.9306 113.337 100.926 100.968L101.42 99.7658C103.021 95.9249 104.872 91.9915 106.941 88.0178L107.841 86.3125L107.842 86.31C107.941 86.1259 108.043 85.9404 108.148 85.7548L108.469 85.1983Z" stroke="#88B440" stroke-width="3"/>
</svg>
