<svg width="345" height="311" viewBox="0 0 345 311" fill="none" xmlns="http://www.w3.org/2000/svg">
<path d="M467.921 3.82031C409.562 41.699 363.905 46.7008 327.132 45.7402L325.375 45.6895C316.013 45.3949 307.236 44.7494 298.936 44.1963C291.169 43.6787 283.814 43.241 276.855 43.2607L275.469 43.2715C260.95 43.4487 248.154 45.6972 236.229 53.4551L235.662 53.8281C230.007 57.5946 226.199 62.7301 224.176 68.4062L223.474 70.377L225.565 70.4102C231.826 70.5085 237.918 70.7973 243.586 71.4688L244.714 71.6084C258.832 73.4296 269.399 77.3233 276.717 82.125V82.126C283.828 86.8 287.832 92.2861 288.844 97.6172L288.932 98.1328C289.735 103.35 287.348 108.483 282.376 111.673L281.887 111.976C276.679 115.08 268.957 116.447 258.826 115.116L257.838 114.979L256.897 114.834C237.591 111.713 225.864 100.553 221.908 88.0957L221.723 87.4922V87.4912L221.498 86.6855C220.448 82.6522 220.458 78.4895 220.994 74.3037L221.216 72.5771L219.475 72.6143C202.471 72.9752 184.259 75.5432 167.823 80.4199C151.922 85.138 137.567 92.0513 127.605 101.323L126.655 102.228C105.003 123.307 95.5123 143.689 94.6826 161.321L94.5566 163.989L96.9004 162.708C106.969 157.205 118.189 153.632 131.107 153.374L132.363 153.359C164.078 153.255 187.948 164.514 197.993 178.051V178.05C202.977 184.769 204.372 192.279 201.207 198.701C198.095 205.002 190.859 210.294 178.849 213.666L177.672 213.986H177.671C143.762 222.93 113.597 212.152 100.055 190.65L99.4229 189.618C95.9192 183.74 93.7607 177.061 92.9717 169.834L92.6973 167.319L90.6221 168.767C87.5012 170.944 84.4456 173.286 81.5459 175.907L80.9688 176.436C67.6674 188.726 57.0877 205.289 48.167 222.577L47.3086 224.252C38.7883 240.996 31.6927 258.478 25.0391 273.327L23.7139 276.261V276.262C20.1756 284.029 16.8024 290.992 13.2676 296.745C10.0828 301.929 6.81642 306.044 3.26172 308.872L2.05469 307.148C5.22347 304.554 8.32035 300.543 11.3701 295.606C14.3896 290.719 17.4282 284.816 20.4932 278.252L21.8076 275.399C28.6374 260.41 35.7873 242.535 44.5869 225.004L45.4443 223.309C54.481 205.545 65.1577 188.427 78.8916 175.513L79.5479 174.901C83.4299 171.312 87.648 168.165 92.0898 165.324L92.7822 164.882V164.06C92.7665 145.27 102.154 123.165 125.188 100.729L125.187 100.728C135.672 90.5187 150.752 83.0289 167.641 78.0459C184.513 73.0676 203.086 70.6236 220.447 70.4346L221.555 70.4219L221.869 69.3604C223.807 62.8109 227.728 56.819 233.896 52.502L234.501 52.0898V52.0889C246.557 44.0477 259.644 41.522 274.046 41.208L275.444 41.1846C282.93 41.0943 290.763 41.5492 299.075 42.1035C306.854 42.6222 315.051 43.2282 323.702 43.543L325.438 43.6016C362.445 44.7631 407.723 40.4012 466.776 2.07324L467.921 3.82031ZM132.369 155.45C118.213 155.496 106.219 159.447 95.6143 165.739L94.8232 166.208L94.8828 167.126C95.3745 174.729 97.3375 181.801 100.871 187.961L101.218 188.555C113.716 209.532 142.558 220.494 175.561 212.368L177.136 211.967C189.395 208.731 196.492 203.519 199.327 197.776C202.119 192.12 201.051 185.979 196.737 179.885L196.31 179.296C187.176 166.988 164.14 155.709 133.819 155.453L132.369 155.45ZM228.301 72.5C226.94 72.5091 225.859 72.5688 224.603 72.5605L223.304 72.5527L223.109 73.8369C222.489 77.9411 222.427 82.2203 223.611 86.4863L223.729 86.8994C227.285 98.8948 238.2 109.704 257.232 112.773L258.146 112.914C268.367 114.409 276.055 113.025 280.814 110.183L280.813 110.182C283.177 108.773 284.901 107.063 285.927 105.04C286.893 103.134 287.186 101.056 286.924 98.8848L286.864 98.4492C286.164 93.9017 282.723 88.7633 276.209 84.3076L275.568 83.8789V83.8779C268.828 79.4524 258.939 75.7103 245.729 73.8525L244.441 73.6787C240.314 73.1448 235.983 72.7807 231.507 72.5859L229.58 72.5127H229.577C229.368 72.5063 229.156 72.5021 228.943 72.5H228.301Z" stroke="#88B440" stroke-width="3"/>
</svg>
