<svg width="12" height="12" viewBox="0 0 12 12" fill="none" xmlns="http://www.w3.org/2000/svg">
<path d="M6.33987 8.77298C6.25242 8.86861 6.12885 8.92308 5.99925 8.92308C5.86965 8.92308 5.74608 8.86861 5.65864 8.77298L3.19709 6.08068C3.02509 5.89255 3.03816 5.60062 3.22628 5.42862C3.41441 5.25662 3.70634 5.26966 3.87834 5.45778L5.53771 7.27274V0.461538C5.53771 0.20664 5.74436 0 5.99925 0C6.25414 0 6.46079 0.20664 6.46079 0.461538V7.27274L8.12017 5.45778C8.29217 5.26966 8.58411 5.25662 8.77224 5.42862C8.96036 5.60062 8.97341 5.89255 8.80141 6.08068L6.33987 8.77298Z" fill="white"/>
<path d="M0.923077 7.84606C0.923077 7.59117 0.716443 7.38452 0.461539 7.38452C0.20664 7.38452 3.22433e-07 7.59117 3.22433e-07 7.84606V7.87984C-1.19853e-05 8.72144 -2.4337e-05 9.39978 0.0717049 9.93332C0.146179 10.4872 0.305496 10.9536 0.675908 11.324C1.04632 11.6944 1.5127 11.8538 2.06662 11.9282C2.60014 11.9999 3.27849 11.9999 4.12008 11.9999H7.87994C8.72154 11.9999 9.39988 11.9999 9.93342 11.9282C10.4873 11.8538 10.9537 11.6944 11.3241 11.324C11.6945 10.9536 11.8538 10.4872 11.9283 9.93332C12 9.39978 12 8.72144 12 7.87984V7.84606C12 7.59117 11.7934 7.38452 11.5385 7.38452C11.2836 7.38452 11.0769 7.59117 11.0769 7.84606C11.0769 8.72938 11.0759 9.34544 11.0135 9.81031C10.9527 10.2619 10.8417 10.501 10.6714 10.6713C10.501 10.8416 10.262 10.9526 9.8104 11.0134C9.34554 11.0758 8.72948 11.0768 7.84615 11.0768H4.15385C3.27052 11.0768 2.65444 11.0758 2.18961 11.0134C1.73806 10.9526 1.49894 10.8416 1.32862 10.6713C1.15831 10.501 1.04726 10.2619 0.986554 9.81031C0.924056 9.34544 0.923077 8.72938 0.923077 7.84606Z" fill="white"/>
</svg>
