<svg xmlns="http://www.w3.org/2000/svg" width="10.918" height="6.003" viewBox="0 0 10.918 6.003">
  <g id="Page-1" transform="translate(10.918 6.006) rotate(180)">
    <g id="Dribbble-Light-Preview" transform="translate(0 0.002)">
      <g id="icons" transform="translate(0 0)">
        <path id="arrow_up-_337_" data-name="arrow_up-[#337]" d="M214.759,6529.8h0a.578.578,0,0,0,0-.8l-4.511-4.674a1.064,1.064,0,0,0-1.543,0l-4.545,4.707a.585.585,0,0,0-.005.8.54.54,0,0,0,.778.006l4.158-4.313a.536.536,0,0,1,.772,0l4.125,4.274a.527.527,0,0,0,.771,0" transform="translate(-204 -6524.002)" fill="#acacac" fill-rule="evenodd"/>
      </g>
    </g>
  </g>
</svg>
