<svg width="62" height="62" viewBox="0 0 62 62" fill="none" xmlns="http://www.w3.org/2000/svg">
<path d="M31 61C47.5685 61 61 47.5685 61 31C61 14.4315 47.5685 1 31 1C14.4315 1 1 14.4315 1 31C1 47.5685 14.4315 61 31 61Z" fill="#6E4725" stroke="#E4BD3C" stroke-width="1.98" stroke-miterlimit="10"/>
<path d="M22.2059 24.8212C24.3637 24.8212 26.1129 23.0719 26.1129 20.9141C26.1129 18.7563 24.3637 17.0071 22.2059 17.0071C20.0481 17.0071 18.2988 18.7563 18.2988 20.9141C18.2988 23.0719 20.0481 24.8212 22.2059 24.8212Z" stroke="#E5BD3C" stroke-width="1.98" stroke-miterlimit="10"/>
<path d="M21.9804 39.1669C23.5014 39.1669 24.7343 36.5699 24.7343 33.3665C24.7343 30.1631 23.5014 27.5662 21.9804 27.5662C20.4595 27.5662 19.2266 30.1631 19.2266 33.3665C19.2266 36.5699 20.4595 39.1669 21.9804 39.1669Z" stroke="#E5BD3C" stroke-width="1.98" stroke-miterlimit="10"/>
<path d="M20.441 47.4717C20.1828 44.7351 19.7956 41.8263 20.0107 39.0724C20.1054 37.8934 19.5804 36.7316 19.3739 35.5612C19.1329 34.2015 19.0469 32.7987 19.3739 31.439C19.6148 30.3977 20.5529 28.3667 18.935 28.0741C18.0486 27.9106 17.1536 28.5733 16.5167 29.0896C14.9591 30.3547 13.8661 32.0328 12.5322 33.513" stroke="#E5BD3C" stroke-width="1.98" stroke-miterlimit="10"/>
<path d="M24.2359 47.5061C24.3908 44.7608 24.6662 41.8348 24.3477 39.0981C24.21 37.9191 24.692 36.7401 24.8555 35.5697C25.0448 34.2014 25.0706 32.7987 24.7006 31.4561C24.4166 30.4321 23.4011 28.4355 25.0104 28.074C25.8882 27.8761 26.809 28.5043 27.4631 28.9949C29.0724 30.1997 30.2255 30.6988 31.6111 32.1274" stroke="#E5BD3C" stroke-width="1.98" stroke-miterlimit="10"/>
<path d="M40.0701 24.5458C42.2279 24.5458 43.9772 22.7966 43.9772 20.6387C43.9772 18.4809 42.2279 16.7317 40.0701 16.7317C37.9123 16.7317 36.1631 18.4809 36.1631 20.6387C36.1631 22.7966 37.9123 24.5458 40.0701 24.5458Z" stroke="#E5BD3C" stroke-width="1.98" stroke-miterlimit="10"/>
<path d="M39.8447 38.8998C41.3656 38.8998 42.5986 36.3029 42.5986 33.0994C42.5986 29.896 41.3656 27.2991 39.8447 27.2991C38.3238 27.2991 37.0908 29.896 37.0908 33.0994C37.0908 36.3029 38.3238 38.8998 39.8447 38.8998Z" stroke="#E5BD3C" stroke-width="1.98" stroke-miterlimit="10"/>
<path d="M38.3053 47.2049C38.0471 44.4682 37.6598 41.5594 37.875 38.8056C37.9696 37.6266 37.4447 36.4648 37.2381 35.2944C36.9972 33.9347 36.9111 32.5319 37.2381 31.1722C37.4791 30.1309 38.4171 28.0999 36.7992 27.8073C35.9128 27.6438 35.0178 28.3064 34.381 28.8228C32.8233 30.0878 31.7304 30.63 30.3965 32.1102" stroke="#E5BD3C" stroke-width="1.98" stroke-miterlimit="10"/>
<path d="M42.1011 47.2304C42.256 44.4852 42.5314 41.5592 42.213 38.8225C42.0753 37.6435 42.5572 36.4645 42.7207 35.2941C42.91 33.9258 42.9359 32.523 42.5658 31.1805C42.2818 30.1564 41.2663 28.1599 42.8756 27.7984C43.7534 27.6005 44.6742 28.2287 45.3283 28.7192C46.9376 29.9241 48.0908 31.5592 49.4763 32.9877" stroke="#E5BD3C" stroke-width="1.98" stroke-miterlimit="10"/>
</svg>
