<svg width="62" height="62" viewBox="0 0 62 62" fill="none" xmlns="http://www.w3.org/2000/svg">
<path d="M31 61C47.5685 61 61 47.5685 61 31C61 14.4315 47.5685 1 31 1C14.4315 1 1 14.4315 1 31C1 47.5685 14.4315 61 31 61Z" fill="#6E4725" stroke="#E4BD3C" stroke-width="1.98" stroke-miterlimit="10"/>
<path d="M21.0086 23.8314C23.1664 23.8314 24.9157 22.0822 24.9157 19.9244C24.9157 17.7666 23.1664 16.0173 21.0086 16.0173C18.8508 16.0173 17.1016 17.7666 17.1016 19.9244C17.1016 22.0822 18.8508 23.8314 21.0086 23.8314Z" stroke="#E5BD3C" stroke-width="1.98" stroke-miterlimit="10"/>
<path d="M23.1637 32.4477C23.2599 29.2457 22.1054 26.6129 20.5852 26.5673C19.065 26.5216 17.7546 29.0803 17.6585 32.2823C17.5623 35.4843 18.7168 38.1171 20.237 38.1627C21.7572 38.2084 23.0676 35.6497 23.1637 32.4477Z" stroke="#E5BD3C" stroke-width="1.98" stroke-miterlimit="10"/>
<path d="M18.4437 46.4218C18.263 43.6766 17.9618 40.7592 18.263 38.0139C18.3921 36.8349 17.9015 35.6645 17.7294 34.4855C17.5229 33.1172 17.4884 31.7144 17.8499 30.3719C18.1253 29.3392 19.1236 27.3427 17.5143 26.9898C16.6365 26.8005 15.7242 27.4287 15.0616 27.9365C13.4609 29.1585 12.3508 29.6576 10.9824 31.1034" stroke="#E5BD3C" stroke-width="1.98" stroke-miterlimit="10"/>
<path d="M22.2383 46.5595C22.4706 43.8143 22.8407 40.9055 22.5997 38.1602C22.4965 36.9812 23.0128 35.8194 23.2107 34.649C23.4431 33.2893 23.5119 31.8866 23.1849 30.5268C22.9354 29.4941 21.9801 27.4718 23.598 27.1533C24.4758 26.9812 25.3794 27.6353 26.0249 28.1516C27.5911 29.4081 28.7013 31.0776 30.0438 32.5406" stroke="#E5BD3C" stroke-width="1.98" stroke-miterlimit="10"/>
<path d="M43.5549 31.3616C44.1659 31.3616 44.949 31.723 45.7063 32.3426C47.7115 33.9949 50.1039 36.7918 50.2588 39.2187C50.3363 40.3547 50.2244 41.2497 49.9232 41.964C49.6048 42.7127 49.0368 43.2893 48.3913 43.4872C48.202 43.5474 47.9869 43.5819 47.7631 43.5819C47.1951 43.5819 46.5669 43.3839 46.0333 43.0311C44.7511 42.1877 43.8647 40.9485 43.3999 39.3564C43.2881 38.9605 43.2795 38.5044 43.2795 37.9795C43.2795 37.6094 43.2795 37.1791 43.2278 36.7316C43.0987 35.4665 42.875 34.2015 42.5738 32.9708C42.4533 32.4975 42.4877 32.0328 42.6598 31.7574C42.7287 31.6455 42.8664 31.482 43.2278 31.396C43.3311 31.3702 43.4344 31.3616 43.5462 31.3616M43.5549 29.7781C43.3311 29.7781 43.116 29.8039 42.8922 29.8469C41.1452 30.2428 40.6805 31.8865 41.0419 33.3581C41.3345 34.5199 41.5411 35.6989 41.6616 36.8865C41.7648 37.8934 41.6013 38.8228 41.8853 39.7953C42.4275 41.6455 43.5032 43.2462 45.1641 44.3478C45.9215 44.8469 46.8509 45.1653 47.7631 45.1653C48.1332 45.1653 48.5032 45.1137 48.8647 45.0018C50.0351 44.6318 50.9215 43.6679 51.3776 42.5836C51.8337 41.4992 51.9111 40.2944 51.8337 39.124C51.6444 36.1378 48.9679 32.9881 46.7046 31.1206C45.8526 30.4149 44.7166 29.7781 43.5462 29.7781H43.5549Z" fill="#E5BD3C"/>
<path d="M40.5263 22.0586C41.6794 22.0586 42.6175 22.9278 42.6175 23.9863C42.6175 25.0448 41.6794 25.914 40.5263 25.914C39.3731 25.914 38.435 25.0448 38.435 23.9863C38.435 22.9278 39.3731 22.0586 40.5263 22.0586ZM40.5263 20.4751C38.4953 20.4751 36.8516 22.05 36.8516 23.9949C36.8516 25.9398 38.4953 27.5147 40.5263 27.5147C42.5572 27.5147 44.201 25.9398 44.201 23.9949C44.201 22.05 42.5572 20.4751 40.5263 20.4751Z" fill="#E5BD3C"/>
<path d="M40.3109 32.093C40.7756 33.1601 41.3178 35.4493 41.3178 38.6765C41.3178 41.9037 40.7756 44.1928 40.3109 45.2599C39.8462 44.1928 39.304 41.9037 39.304 38.6765C39.304 35.4493 39.8462 33.1601 40.3109 32.093ZM40.3109 29.9932C38.8737 29.9932 37.7119 33.883 37.7119 38.6851C37.7119 43.4871 38.8737 47.377 40.3109 47.377C41.7481 47.377 42.9098 43.4871 42.9098 38.6851C42.9098 33.883 41.7481 29.9932 40.3109 29.9932Z" fill="#E5BD3C"/>
<path d="M38.2029 21.2928L36.1289 18.5562" stroke="#E5BD3C" stroke-width="1.84" stroke-miterlimit="10"/>
<path d="M42.7041 21.4046L44.7781 18.668" stroke="#E5BD3C" stroke-width="1.84" stroke-miterlimit="10"/>
<path d="M36.8166 31.3616C36.9285 31.3616 37.0318 31.3702 37.1264 31.396C37.4879 31.482 37.6256 31.6369 37.6944 31.7574C37.8665 32.0414 37.901 32.5061 37.7805 32.9708C37.4707 34.2015 37.2469 35.4665 37.1264 36.7316C37.0834 37.1791 37.0834 37.6008 37.0748 37.9795C37.0748 38.5044 37.0748 38.9605 36.9543 39.3564C36.4896 40.9485 35.6032 42.1791 34.3209 43.0311C33.7874 43.3839 33.1591 43.5819 32.5911 43.5819C32.3674 43.5819 32.1609 43.5474 31.9629 43.4872C31.3261 43.2893 30.7495 42.7213 30.4311 41.964C30.1299 41.2583 30.0266 40.3633 30.0954 39.2187C30.2504 36.7832 32.6428 33.9949 34.6479 32.3426C35.4053 31.7144 36.1884 31.3616 36.7994 31.3616M36.8166 29.7781C35.6548 29.7781 34.5102 30.4149 33.6583 31.1206C31.3949 32.9881 28.7271 36.1378 28.5292 39.124C28.4517 40.2944 28.5292 41.4992 28.9853 42.5836C29.4414 43.6765 30.3364 44.6404 31.4982 45.0018C31.8596 45.1137 32.2297 45.1653 32.5998 45.1653C33.512 45.1653 34.4414 44.8555 35.1987 44.3478C36.8596 43.2462 37.9354 41.6455 38.4775 39.7953C38.7615 38.8228 38.598 37.8848 38.7013 36.8865C38.8218 35.6989 39.0283 34.5199 39.3209 33.3581C39.691 31.8865 39.2177 30.2428 37.4707 29.8469C37.2469 29.7953 37.0318 29.7781 36.808 29.7781H36.8166Z" fill="#E5BD3C"/>
</svg>
