<svg width="62" height="62" viewBox="0 0 62 62" fill="none" xmlns="http://www.w3.org/2000/svg">
<path d="M31 61C47.5685 61 61 47.5685 61 31C61 14.4315 47.5685 1 31 1C14.4315 1 1 14.4315 1 31C1 47.5685 14.4315 61 31 61Z" fill="#6E4725" stroke="#E4BD3C" stroke-width="1.98" stroke-miterlimit="10"/>
<path d="M31.0002 46.1894C39.4556 46.1894 46.3101 39.335 46.3101 30.8796C46.3101 22.4243 39.4556 15.5698 31.0002 15.5698C22.5449 15.5698 15.6904 22.4243 15.6904 30.8796C15.6904 39.335 22.5449 46.1894 31.0002 46.1894Z" stroke="#E4BD3C" stroke-width="1.98" stroke-miterlimit="10"/>
<path d="M49.0032 49.6919C46.4817 47.3855 43.9688 45.0705 41.4473 42.7642" stroke="#E5BD3C" stroke-width="1.98" stroke-miterlimit="10"/>
<path d="M33.5031 29.7179C33.856 29.7179 34.3637 29.9502 34.8542 30.3375C36.4721 31.6198 38.1589 33.6421 38.2966 35.2514C38.3654 36.0518 38.2966 36.68 38.1159 37.1619C37.9351 37.6094 37.6081 37.9623 37.2467 38.0828C37.1348 38.1172 37.0143 38.1344 36.8766 38.1344C36.541 38.1344 36.1537 38.0139 35.8267 37.8074C34.9231 37.2308 34.2863 36.3788 33.942 35.2686C33.8646 35.0277 33.856 34.7265 33.8474 34.3392C33.8474 34.038 33.8301 33.7024 33.7871 33.3323C33.6666 32.3341 33.4687 31.3358 33.2105 30.3633C33.1331 30.0793 33.1675 29.8642 33.2105 29.7867C33.2277 29.7523 33.3138 29.7351 33.3482 29.7265C33.3912 29.7179 33.4429 29.7093 33.5031 29.7093M33.5031 28.0139C33.3138 28.0139 33.1331 28.0311 32.9437 28.0828C31.6012 28.4184 31.257 29.6921 31.5668 30.828C31.8078 31.723 31.9885 32.6353 32.1004 33.5475C32.195 34.322 32.0832 35.0449 32.3155 35.7936C32.763 37.2136 33.615 38.4356 34.9231 39.2618C35.4997 39.6318 36.1968 39.8556 36.8852 39.8556C37.195 39.8556 37.5048 39.8125 37.7974 39.7093C38.6925 39.4081 39.3723 38.6508 39.7079 37.7988C40.0436 36.9468 40.0866 36.0174 40.0092 35.1137C39.8112 32.8074 37.7028 30.4149 35.9214 29.0036C35.2587 28.4786 34.3895 28.0139 33.5031 28.0139Z" fill="#E5BD3C"/>
<path d="M31.0343 22.5663C31.6453 22.5663 32.1531 23.0138 32.1703 23.5559C32.1789 24.1153 31.6797 24.58 31.0257 24.5886C30.4147 24.5886 29.9069 24.1411 29.8897 23.599C29.8811 23.0396 30.3803 22.5749 31.0085 22.5663H31.0343ZM31.0343 20.8623C31.0343 20.8623 30.9913 20.8623 30.9741 20.8623C29.3992 20.8967 28.1513 22.136 28.1772 23.6334C28.203 25.1136 29.468 26.3012 31.0171 26.3012C31.0343 26.3012 31.0601 26.3012 31.0773 26.3012C32.6522 26.2668 33.9 25.0275 33.8742 23.5301C33.8484 22.0499 32.5833 20.8623 31.0343 20.8623Z" fill="#E5BD3C"/>
<path d="M31.0086 31.5681C31.198 32.4373 31.3529 33.5732 31.3787 34.9416C31.4045 36.3099 31.3012 37.4545 31.1463 38.3237C30.957 37.4545 30.8021 36.3185 30.7763 34.9502C30.7505 33.5818 30.8537 32.4373 31.0086 31.5681ZM30.957 28.229C30.957 28.229 30.957 28.229 30.9484 28.229C29.8382 28.2462 28.9949 31.2755 29.0723 34.9846C29.1412 38.6851 30.0964 41.6627 31.198 41.6627C31.198 41.6627 31.198 41.6627 31.2066 41.6627C32.3167 41.6455 33.1601 38.6163 33.0826 34.9071C33.0138 31.2066 32.0585 28.229 30.957 28.229Z" fill="#E5BD3C"/>
<path d="M29.1838 21.5252C28.633 20.8282 28.0908 20.1311 27.54 19.4426" stroke="#E5BD3C" stroke-width="1.98" stroke-miterlimit="10"/>
<path d="M32.6689 21.5421L34.2266 19.3906" stroke="#E5BD3C" stroke-width="1.98" stroke-miterlimit="10"/>
<path d="M28.2971 29.8213C28.3401 29.8213 28.3832 29.8213 28.4176 29.8299C28.452 29.8299 28.5381 29.8557 28.5553 29.8901C28.5983 29.959 28.6414 30.1741 28.5811 30.4581C28.3574 31.4392 28.2025 32.4461 28.1164 33.4443C28.082 33.8144 28.0906 34.1586 28.0992 34.4512C28.0992 34.8385 28.1078 35.1397 28.0475 35.3893C27.7463 36.5166 27.1439 37.3944 26.2575 37.9968C25.9133 38.2292 25.5174 38.3669 25.1646 38.3669C25.0527 38.3669 24.9494 38.3497 24.8462 38.3239C24.4847 38.2206 24.1405 37.8763 23.9426 37.4374C23.736 36.9641 23.65 36.3445 23.6844 35.5356C23.7618 33.9177 25.3711 31.835 26.9374 30.4839C27.4193 30.0708 27.9443 29.8041 28.2971 29.8041M28.2971 28.1087C27.3763 28.1087 26.4899 28.6337 25.8272 29.193C24.1061 30.6732 22.0837 33.1431 21.9804 35.4581C21.9374 36.3617 22.0148 37.2911 22.3849 38.1259C22.755 38.9607 23.4606 39.6922 24.3642 39.959C24.6224 40.0364 24.8892 40.0708 25.156 40.0708C25.8875 40.0708 26.619 39.8127 27.2128 39.3996C28.4864 38.5218 29.2954 37.2653 29.6827 35.8282C29.8892 35.0708 29.7515 34.3479 29.8117 33.5734C29.8892 32.6526 30.0269 31.7318 30.2334 30.8282C30.5002 29.6836 30.113 28.4185 28.7532 28.1431C28.5983 28.1087 28.4434 28.1001 28.2885 28.1001L28.2971 28.1087Z" fill="#E5BD3C"/>
</svg>
