<svg width="62" height="62" viewBox="0 0 62 62" fill="none" xmlns="http://www.w3.org/2000/svg">
<path d="M31 61C47.5686 61 61 47.5685 61 31C61 14.4315 47.5686 1 31 1C14.4315 1 1 14.4315 1 31C1 47.5685 14.4315 61 31 61Z" fill="#6E4725" stroke="#E4BD3C" stroke-width="1.98" stroke-miterlimit="10"/>
<path d="M31.2407 47.1274C40.1714 47.1274 47.4111 39.8877 47.4111 30.957C47.4111 22.0264 40.1714 14.7866 31.2407 14.7866C22.31 14.7866 15.0703 22.0264 15.0703 30.957C15.0703 39.8877 22.31 47.1274 31.2407 47.1274Z" stroke="#E4BD3C" stroke-width="1.98" stroke-miterlimit="10"/>
<path d="M26.2546 34.8C31.2022 31.9435 33.0091 25.8106 30.2905 21.1018C27.5718 16.393 21.3571 14.8913 16.4095 17.7478C11.462 20.6043 9.65507 26.7372 12.3737 31.446C15.0924 36.1549 21.3071 37.6565 26.2546 34.8Z" fill="#6E4725"/>
<path d="M53.393 24.9821C54.6563 20.5878 52.2404 16.0365 47.9969 14.8165C43.7534 13.5965 39.2891 16.1697 38.0258 20.564C36.7624 24.9582 39.1783 29.5095 43.4219 30.7295C47.6654 31.9496 52.1296 29.3763 53.393 24.9821Z" fill="#6E4725"/>
<path d="M35.3115 25.9309C37.1446 21.4559 45.9139 18.6331 49.1325 23.2631C49.4682 23.745 49.7435 24.2958 49.8124 24.881C49.8812 25.4662 49.7177 26.1374 49.2788 26.6108C48.8141 27.1099 48.0826 27.3509 47.4027 27.3337C46.7229 27.3165 46.1033 27.0755 45.5267 26.7743C44.1325 26.0256 42.9449 24.881 42.3769 23.4524C41.9639 22.4025 42.179 21.06 42.7212 20.8276" stroke="#E5BD3C" stroke-width="1.84" stroke-miterlimit="10"/>
<path d="M46.7065 14.1755C46.7323 14.2444 46.7581 14.3132 46.7839 14.382C46.8958 14.7779 46.9044 15.2598 46.7925 15.8709C46.629 16.8003 45.166 18.685 43.6772 19.58C43.0834 19.9414 42.7564 19.9586 42.7134 19.95C42.7134 19.95 42.6962 19.9328 42.6703 19.864C42.6273 19.7607 42.5499 19.5197 42.5499 19.0206C42.5671 17.5318 43.0404 16.0344 43.901 14.8037C44.2796 14.2616 44.6497 13.8915 45.0369 13.6764C45.4242 13.4612 45.8459 13.4182 46.1557 13.5473C46.3881 13.6419 46.5946 13.8743 46.7237 14.1669M47.6187 13.771C47.4036 13.2891 47.0335 12.8674 46.5516 12.6523C45.9147 12.3769 45.1574 12.4888 44.5464 12.8244C43.9354 13.16 43.4621 13.6936 43.0662 14.2616C42.0937 15.6643 41.5602 17.3425 41.543 19.0292C41.543 19.5714 41.6032 19.9759 41.7409 20.2684C42.7564 22.5748 47.3863 18.2633 47.7736 16.0258C47.8855 15.3889 47.9199 14.7263 47.7392 14.1067C47.7048 13.9948 47.6703 13.8829 47.6187 13.771Z" fill="#E5BD3C"/>
<path d="M46.7065 14.1755C46.7323 14.2444 46.7581 14.3132 46.7839 14.382C46.8958 14.7779 46.9044 15.2598 46.7925 15.8709C46.629 16.8003 45.166 18.685 43.6772 19.58C43.0834 19.9414 42.7564 19.9586 42.7134 19.95C42.7134 19.95 42.6962 19.9328 42.6703 19.864C42.6273 19.7607 42.5499 19.5197 42.5499 19.0206C42.5671 17.5318 43.0404 16.0344 43.901 14.8037C44.2796 14.2616 44.6497 13.8915 45.0369 13.6764C45.4242 13.4612 45.8459 13.4182 46.1557 13.5473C46.3881 13.6419 46.5946 13.8743 46.7237 14.1669M47.6187 13.771C47.4036 13.2891 47.0335 12.8674 46.5516 12.6523C45.9147 12.3769 45.1574 12.4888 44.5464 12.8244C43.9354 13.16 43.4621 13.6936 43.0662 14.2616C42.0937 15.6643 41.5602 17.3425 41.543 19.0292C41.543 19.5714 41.6032 19.9759 41.7409 20.2685C42.7564 22.5748 47.3863 18.2633 47.7736 16.0258C47.8855 15.3889 47.9199 14.7263 47.7392 14.1067C47.7048 13.9948 47.6703 13.8829 47.6187 13.771Z" stroke="#E5BD3C" stroke-miterlimit="10"/>
<path d="M21.4815 20.0276C21.6364 20.0276 21.8086 20.0362 21.9721 20.062C23.8309 20.3116 26.0857 21.1033 26.9463 22.3081C27.3765 22.9105 27.6175 23.4269 27.695 23.9002C27.7638 24.3477 27.6691 24.7952 27.4368 25.0706C27.1872 25.3632 26.7225 25.5353 26.2148 25.5353H26.1631C25.1821 25.5095 24.287 25.1308 23.4867 24.4252C23.306 24.2703 23.1597 24.0293 22.9703 23.7281C22.824 23.5043 22.6691 23.2462 22.4626 22.9794C21.9118 22.2651 21.3008 21.5852 20.6554 20.957C20.4574 20.7677 20.3714 20.5697 20.3714 20.4665C20.3714 20.4493 20.3714 20.3976 20.466 20.303C20.6468 20.1222 21.0168 20.0276 21.4729 20.0276M21.4815 18.5646C20.7414 18.5646 19.9755 18.7367 19.4419 19.2617C18.5555 20.1394 18.8826 21.284 19.6399 22.0155C20.2423 22.5921 20.7931 23.2203 21.3008 23.8744C21.7311 24.4338 21.9807 25.0448 22.5056 25.5095C23.5039 26.4045 24.7259 26.9553 26.1201 26.9897C26.1545 26.9897 26.1803 26.9897 26.2148 26.9897C27.0753 26.9897 27.979 26.6713 28.5469 26.0086C29.0977 25.3632 29.2698 24.4682 29.1407 23.6506C29.0117 22.8417 28.6158 22.1016 28.1339 21.4389C26.9204 19.7436 24.1838 18.8658 22.1614 18.599C21.9376 18.5732 21.7053 18.5474 21.4729 18.5474L21.4815 18.5646Z" fill="#E5BD3C"/>
<path d="M15.992 15.6564C16.3448 15.6564 16.6546 15.8199 16.8267 16.0953C17.1107 16.56 16.93 17.1882 16.4137 17.5066C16.2243 17.6271 16.0092 17.6873 15.794 17.6873C15.4412 17.6873 15.1314 17.5238 14.9593 17.2484C14.8302 17.0333 14.7871 16.7751 14.856 16.5169C14.9248 16.2329 15.1142 15.992 15.3723 15.8285C15.5617 15.708 15.7768 15.6477 15.992 15.6477M15.992 14.1934C15.5186 14.1934 15.0367 14.3224 14.5978 14.5978C13.393 15.3465 13.0057 16.8784 13.72 18.0316C14.1761 18.7631 14.9679 19.1589 15.794 19.1589C16.2674 19.1589 16.7493 19.0298 17.1882 18.7545C18.393 18.0058 18.7803 16.4739 18.066 15.3207C17.6099 14.5892 16.8181 14.1934 15.992 14.1934Z" fill="#E5BD3C"/>
<path d="M19.3731 22.5579C19.9669 23.1517 20.707 24.0467 21.4557 25.2515C22.2044 26.4563 22.6778 27.5149 22.9531 28.3066C22.3593 27.7128 21.6192 26.8178 20.8705 25.613C20.1218 24.4082 19.6485 23.3496 19.3731 22.5579ZM18.306 20.2085C18.1769 20.2085 18.065 20.2343 17.9703 20.2946C17.127 20.8195 17.8671 23.5476 19.6313 26.3789C21.1975 28.8918 23.0306 30.6474 24.0203 30.6474C24.1494 30.6474 24.2612 30.6216 24.3559 30.5613C25.1993 30.0364 24.4592 27.3083 22.695 24.477C21.1287 21.9641 19.2957 20.2085 18.306 20.2085Z" fill="#E5BD3C"/>
<path d="M13.5219 15.9311C12.7818 15.6471 12.0331 15.3631 11.293 15.0791" stroke="#E5BD3C" stroke-width="1.7" stroke-miterlimit="10"/>
<path d="M16.2246 14.3391L16.4398 11.9639" stroke="#E5BD3C" stroke-width="1.7" stroke-miterlimit="10"/>
<path d="M16.8611 22.6095C16.9644 22.6095 17.1365 22.8074 17.2312 23.1C17.5066 23.9606 17.8508 24.804 18.2467 25.6129C18.393 25.9141 18.5479 26.1723 18.6942 26.3961C18.8835 26.6973 19.0298 26.9296 19.09 27.162C19.374 28.1861 19.3138 29.1585 18.9007 30.0535C18.6856 30.5269 18.2983 30.8969 17.9197 30.9916C17.8422 31.0088 17.7561 31.026 17.6615 31.026C17.3689 31.026 17.0332 30.9141 16.7493 30.7162C16.362 30.4408 16.0005 29.9933 15.6563 29.3393C14.9592 28.0312 15.2432 25.656 15.837 23.8831C16.0522 23.2291 16.3964 22.7558 16.7234 22.6439C16.7923 22.6181 16.8353 22.6181 16.8611 22.6181M16.8611 21.1465C16.6632 21.1465 16.4653 21.1809 16.2415 21.2584C15.3035 21.5854 14.7441 22.5492 14.4515 23.4184C13.8061 25.3547 13.3844 28.1947 14.3654 30.0277C14.7527 30.7506 15.2346 31.4305 15.9059 31.9038C16.4136 32.2566 17.0332 32.489 17.6615 32.489C17.868 32.489 18.0746 32.4632 18.2811 32.4115C19.1503 32.1878 19.856 31.4735 20.226 30.6646C20.8026 29.3995 20.8542 28.057 20.4928 26.7661C20.3035 26.0862 19.8646 25.5957 19.5548 24.9675C19.1847 24.2188 18.8749 23.4442 18.6253 22.6525C18.3585 21.835 17.7303 21.1465 16.8611 21.1465Z" fill="#E5BD3C"/>
<path d="M36.5906 47.9147C37.4324 44.9867 35.8227 41.9541 32.9952 41.1412C30.1677 40.3283 27.1932 42.0429 26.3514 44.9709C25.5096 47.8989 27.1193 50.9315 29.9468 51.7444C32.7743 52.5573 35.7488 50.8427 36.5906 47.9147Z" fill="#6E4725"/>
<path d="M31.4477 35.4148C33.211 35.4148 34.6404 33.9854 34.6404 32.2221C34.6404 30.4588 33.211 29.0293 31.4477 29.0293C29.6843 29.0293 28.2549 30.4588 28.2549 32.2221C28.2549 33.9854 29.6843 35.4148 31.4477 35.4148Z" stroke="#E5BD3C" stroke-width="1.98" stroke-miterlimit="10"/>
<path d="M31.2588 47.1188C32.4993 47.1188 33.5049 44.9996 33.5049 42.3856C33.5049 39.7715 32.4993 37.6523 31.2588 37.6523C30.0183 37.6523 29.0127 39.7715 29.0127 42.3856C29.0127 44.9996 30.0183 47.1188 31.2588 47.1188Z" stroke="#E5BD3C" stroke-width="1.98" stroke-miterlimit="10"/>
<path d="M30.0101 53.9093C29.8035 51.6718 29.4851 49.2966 29.6572 47.0505C29.7347 46.0866 29.3044 45.14 29.1409 44.1847C28.9429 43.0746 28.8741 41.93 29.1409 40.8198C29.3388 39.9679 30.1047 38.3069 28.7794 38.0746C28.0565 37.9369 27.325 38.479 26.8087 38.9007C25.535 39.9334 24.64 41.3018 23.5557 42.5152" stroke="#E5BD3C" stroke-width="1.98" stroke-miterlimit="10"/>
<path d="M33.1083 53.9266C33.2374 51.6805 33.4611 49.2967 33.2029 47.0591C33.0911 46.0953 33.4869 45.1314 33.616 44.1762C33.7709 43.0574 33.7881 41.9128 33.4869 40.8199C33.2546 39.9851 32.4284 38.35 33.7365 38.0574C34.4508 37.8939 35.2081 38.4103 35.7417 38.8061C37.0584 39.7872 37.9964 41.1211 39.1324 42.2915" stroke="#E5BD3C" stroke-width="1.98" stroke-miterlimit="10"/>
</svg>
