<svg width="62" height="62" viewBox="0 0 62 62" fill="none" xmlns="http://www.w3.org/2000/svg">
<path d="M31 61C47.5685 61 61 47.5685 61 31C61 14.4315 47.5685 1 31 1C14.4315 1 1 14.4315 1 31C1 47.5685 14.4315 61 31 61Z" fill="#6E4725" stroke="#E4BD3C" stroke-width="1.98" stroke-miterlimit="10"/>
<path d="M39.7802 35.1485C48.4635 30.3293 46.7767 23.6941 37.3447 23.1348" stroke="#E5BD3C" stroke-width="1.98" stroke-miterlimit="10"/>
<path d="M38.6445 36.3711L39.3932 33.0234" stroke="#E5BD3C" stroke-width="1.98" stroke-miterlimit="10"/>
<path d="M38.0332 35.519C39.152 35.7686 40.2621 36.0182 41.3809 36.2678" stroke="#E5BD3C" stroke-width="1.98" stroke-miterlimit="10"/>
<path d="M31.0457 14.3053C33.2035 14.3053 34.9528 12.5561 34.9528 10.3983C34.9528 8.24046 33.2035 6.49121 31.0457 6.49121C28.8879 6.49121 27.1387 8.24046 27.1387 10.3983C27.1387 12.5561 28.8879 14.3053 31.0457 14.3053Z" stroke="#E5BD3C" stroke-width="1.98" stroke-miterlimit="10"/>
<path d="M31.0457 27.2228C33.2035 27.2228 34.9528 25.4736 34.9528 23.3157C34.9528 21.1579 33.2035 19.4087 31.0457 19.4087C28.8879 19.4087 27.1387 21.1579 27.1387 23.3157C27.1387 25.4736 28.8879 27.2228 31.0457 27.2228Z" stroke="#E5BD3C" stroke-width="1.98" stroke-miterlimit="10"/>
<path d="M24.273 10.4238C14.4967 12.1622 13.9287 18.9867 22.6723 22.5753" stroke="#E5BD3C" stroke-width="1.98" stroke-miterlimit="10"/>
<path d="M24.1262 22.3433L21.0625 23.8837" stroke="#E5BD3C" stroke-width="1.98" stroke-miterlimit="10"/>
<path d="M23.8512 23.3677C23.3434 22.3436 22.8271 21.3195 22.3193 20.2954" stroke="#E5BD3C" stroke-width="1.98" stroke-miterlimit="10"/>
<path d="M31.5272 41.775C33.685 41.775 35.4342 40.0258 35.4342 37.868C35.4342 35.7102 33.685 33.9609 31.5272 33.9609C29.3694 33.9609 27.6201 35.7102 27.6201 37.868C27.6201 40.0258 29.3694 41.775 31.5272 41.775Z" stroke="#E5BD3C" stroke-width="1.98" stroke-miterlimit="10"/>
<path d="M31.5272 54.7013C33.685 54.7013 35.4342 52.9521 35.4342 50.7943C35.4342 48.6365 33.685 46.8872 31.5272 46.8872C29.3694 46.8872 27.6201 48.6365 27.6201 50.7943C27.6201 52.9521 29.3694 54.7013 31.5272 54.7013Z" stroke="#E5BD3C" stroke-width="1.98" stroke-miterlimit="10"/>
<path d="M24.7456 37.8945C14.9694 39.6329 14.4014 46.4573 23.1449 50.046" stroke="#E5BD3C" stroke-width="1.98" stroke-miterlimit="10"/>
<path d="M24.6076 49.8218L21.5439 51.3622" stroke="#E5BD3C" stroke-width="1.98" stroke-miterlimit="10"/>
<path d="M24.3238 50.8462C23.8161 49.8221 23.2997 48.798 22.792 47.7739" stroke="#E5BD3C" stroke-width="1.98" stroke-miterlimit="10"/>
</svg>
