<svg width="62" height="62" viewBox="0 0 62 62" fill="none" xmlns="http://www.w3.org/2000/svg">
<path d="M31 61C47.5685 61 61 47.5685 61 31C61 14.4315 47.5685 1 31 1C14.4315 1 1 14.4315 1 31C1 47.5685 14.4315 61 31 61Z" fill="#6E4725" stroke="#E4BD3C" stroke-width="1.98" stroke-miterlimit="10"/>
<path fill-rule="evenodd" clip-rule="evenodd" d="M23.1945 32.2999C23.1171 32.3172 23.031 32.2913 22.9794 32.2225L22.093 31.2242C21.9295 31.25 21.766 31.2586 21.6111 31.2672C20.5526 32.9368 20.7849 32.9454 19.9157 31.1812C19.7522 31.1554 19.5887 31.1209 19.4338 31.0865C17.988 32.4204 18.2032 32.4893 17.8159 30.5616C17.661 30.5013 17.5233 30.4325 17.3684 30.355C15.63 31.2672 15.8365 31.3963 15.9484 29.4256C15.8193 29.3223 15.6989 29.219 15.5698 29.1158C13.6507 29.5547 13.8142 29.7096 14.4338 27.8507C14.3391 27.7216 14.2359 27.5839 14.1498 27.4549C12.1877 27.3688 12.2909 27.5839 13.3753 25.9402C13.3236 25.7939 13.2634 25.6304 13.2032 25.4841C11.3271 24.8989 11.3787 25.1313 12.8417 23.8232C12.8245 23.6511 12.8159 23.4962 12.8073 23.3326C11.1377 22.2741 11.1291 22.5065 12.8933 21.6373C12.9192 21.4738 12.9536 21.3103 12.9794 21.1468C11.6455 19.7096 11.568 19.9333 13.4958 19.5375C13.5646 19.3826 13.6421 19.2449 13.7109 19.09C12.7987 17.3516 12.6696 17.5581 14.6231 17.67C14.735 17.5409 14.8297 17.4204 14.9415 17.2913C14.5026 15.3722 14.3305 15.5357 16.1894 16.1554C16.3271 16.0521 16.4562 15.9574 16.6025 15.8714C16.6713 13.9092 16.4648 14.0125 18.1171 15.0968C18.2634 15.0452 18.4183 14.985 18.5732 14.9247C19.1584 13.0487 18.926 13.1003 20.2341 14.5633C20.389 14.5547 20.5612 14.5375 20.7247 14.5289C21.766 12.8679 21.5422 12.8593 22.42 14.6149C22.5749 14.6407 22.747 14.6752 22.9019 14.7096C24.3477 13.3757 24.124 13.2982 24.5198 15.2259C24.6661 15.2948 24.8124 15.3722 24.9587 15.4411C26.7057 14.5203 26.5078 14.3912 26.3873 16.3533C26.5164 16.4652 26.6369 16.5598 26.7574 16.6803C28.6765 16.2414 28.5216 16.0693 27.902 17.9368C27.9966 18.0659 28.0999 18.2036 28.1859 18.3326C30.1481 18.4015 30.0448 18.195 28.9605 19.8473C29.0121 19.9936 29.0723 20.1571 29.1154 20.312C31.0001 20.8972 30.9484 20.6648 29.4768 21.9729C29.5026 22.1278 29.5112 22.2999 29.5199 22.4548C31.1808 23.4962 31.1894 23.2724 29.4338 24.1502C29.408 24.3051 29.3736 24.4772 29.3391 24.6321L30.2427 25.6132C30.3804 25.7595 30.2427 25.966 30.1309 25.9832L28.8228 26.2586C28.7625 26.3963 28.6937 26.5512 28.6162 26.6975C29.5371 28.4445 29.6661 28.2466 27.6954 28.1261C27.5921 28.2552 27.4889 28.3757 27.3856 28.4962C27.8245 30.4153 27.9966 30.2604 26.1291 29.6407C26.0001 29.7354 25.8624 29.8387 25.7333 29.9247C25.6472 31.8869 25.8538 31.775 24.2186 30.6993C24.0723 30.7509 23.9088 30.8111 23.7539 30.8542L23.3581 32.1278C23.3322 32.2139 23.272 32.2741 23.1859 32.2913L23.1945 32.2999ZM22.5233 29.176C19.0723 29.9247 15.6472 27.7216 14.9071 24.2621C14.167 20.8025 16.3701 17.386 19.8211 16.6459C23.272 15.9058 26.6971 18.1089 27.4372 21.5598C28.1773 25.0108 25.9828 28.4359 22.5233 29.176Z" fill="#E5BD3C"/>
<path fill-rule="evenodd" clip-rule="evenodd" d="M34.1408 53.8228C34.0461 53.84 33.9515 53.8142 33.8912 53.7282L32.8499 52.5492C32.652 52.575 32.4627 52.5922 32.2733 52.6008C31.0255 54.5715 31.3009 54.5801 30.2596 52.5061C30.0616 52.4803 29.8809 52.4373 29.6916 52.3942C27.9704 53.9777 28.2372 54.0552 27.7725 51.7746C27.5917 51.7058 27.4282 51.6197 27.2475 51.5337C25.1907 52.618 25.4317 52.7729 25.5694 50.4407C25.4231 50.3202 25.2682 50.1912 25.1219 50.0707C22.8499 50.587 23.0392 50.7763 23.7794 48.5732C23.6675 48.4183 23.547 48.2548 23.4437 48.0999C21.1201 48.0053 21.2406 48.2462 22.5229 46.3099C22.454 46.1292 22.3852 45.9399 22.325 45.7677C20.1047 45.0707 20.1649 45.3461 21.9033 43.797C21.8861 43.5991 21.8775 43.4097 21.8602 43.2204C19.8895 41.9726 19.8809 42.2479 21.9549 41.2066C21.9807 41.0087 22.0238 40.828 22.0582 40.6214C20.4747 38.9175 20.3886 39.1843 22.6692 38.7195C22.7553 38.5388 22.8413 38.3667 22.9188 38.186C21.8344 36.1292 21.6795 36.3702 24.0031 36.5078C24.1322 36.3529 24.2527 36.2066 24.3818 36.0603C23.8654 33.7884 23.6589 33.9777 25.862 34.7178C26.0255 34.5973 26.1804 34.4855 26.3525 34.3822C26.4386 32.0586 26.189 32.1791 28.1425 33.4614C28.3232 33.3925 28.4954 33.3323 28.6847 33.2634C29.3818 31.0431 29.1064 31.1034 30.6554 32.8418C30.8448 32.8245 31.0427 32.8159 31.232 32.7987C32.4713 30.828 32.1959 30.8194 33.2458 32.8934C33.4265 32.9192 33.6244 32.9622 33.8138 33.0053C35.5349 31.4218 35.2682 31.3271 35.7329 33.6163C35.905 33.7023 36.0857 33.7884 36.2492 33.8745C38.3146 32.7901 38.0823 32.6352 37.9446 34.9588C38.0995 35.0879 38.2458 35.2084 38.3835 35.3374C40.6554 34.8211 40.4747 34.6146 39.7432 36.8349C39.8551 36.9898 39.9756 37.1533 40.0788 37.3082C42.4024 37.3942 42.2819 37.1447 40.9997 39.0982C41.0685 39.2789 41.1374 39.4683 41.189 39.6404C43.4265 40.3288 43.3663 40.0535 41.6107 41.6111C41.6365 41.8004 41.6537 41.9984 41.6623 42.1877C43.6331 43.4269 43.6417 43.1516 41.5676 44.2015C41.5418 44.3822 41.4988 44.5801 41.4558 44.7695L42.5229 45.9313C42.6864 46.1034 42.5315 46.3529 42.3852 46.3702L40.8362 46.6886C40.7587 46.8521 40.6812 47.0328 40.5952 47.2049C41.6795 49.2703 41.8344 49.038 39.5022 48.9003C39.3818 49.0466 39.2527 49.2015 39.1322 49.3306C39.6485 51.6025 39.8551 51.4218 37.6348 50.6903C37.4799 50.8022 37.3164 50.9226 37.1614 51.0259C37.0668 53.3495 37.3077 53.2204 35.3714 51.9467C35.1907 52.0156 35.0014 52.0844 34.8293 52.1361L34.3645 53.6421C34.3301 53.7454 34.2613 53.8142 34.158 53.84L34.1408 53.8228ZM33.3491 50.1223C29.2613 51.0087 25.2079 48.4011 24.3215 44.2961C23.4351 40.2084 26.0513 36.155 30.1477 35.2686C34.2441 34.3822 38.2888 36.9984 39.1752 41.0948C40.0616 45.1998 37.454 49.2359 33.3491 50.1223Z" fill="#E5BD3C"/>
<path fill-rule="evenodd" clip-rule="evenodd" d="M43.8664 32.3078C43.789 32.325 43.7029 32.2992 43.6513 32.2303L42.7649 31.232C42.6014 31.2578 42.4379 31.2664 42.2829 31.2751C41.2244 32.9446 41.4568 32.9532 40.5876 31.189C40.4241 31.1632 40.2606 31.1288 40.1057 31.0943C38.6513 32.4282 38.875 32.4971 38.4878 30.5694C38.3329 30.5091 38.1952 30.4403 38.0403 30.3628C36.3019 31.2751 36.4998 31.4041 36.6203 29.4334C36.4912 29.3301 36.3707 29.2269 36.2416 29.1236C34.3225 29.5625 34.486 29.726 35.1057 27.8585C35.011 27.7294 34.9077 27.5917 34.8217 27.4627C32.8595 27.3766 32.9628 27.5917 34.0471 25.948C33.9955 25.8017 33.9353 25.6382 33.875 25.4919C31.999 24.9067 32.0506 25.1391 33.5136 23.831C33.4964 23.6589 33.4878 23.504 33.4792 23.3405C31.8096 22.2819 31.801 22.5143 33.5652 21.6451C33.591 21.4816 33.6255 21.3181 33.6513 21.1546C32.3174 19.7174 32.2399 19.9411 34.1676 19.5453C34.2365 19.3904 34.3139 19.2527 34.3828 19.0978C33.4706 17.3594 33.3415 17.5573 35.295 17.6778C35.4069 17.5487 35.5015 17.4282 35.6134 17.2992C35.1745 15.38 35.0024 15.5436 36.8699 16.1632C37.0076 16.0599 37.1366 15.9652 37.2829 15.8792C37.3518 13.917 37.1453 14.0203 38.7976 15.1047C38.9439 15.053 39.0988 14.9928 39.2537 14.9325C39.8389 13.0565 39.6065 13.1081 40.9146 14.5711C41.0695 14.5625 41.2416 14.5453 41.4051 14.5367C42.4551 12.8757 42.2227 12.8671 43.1005 14.6227C43.2554 14.6485 43.4275 14.683 43.5824 14.7174C45.0368 13.3835 44.8045 13.2974 45.2003 15.2337C45.3466 15.3026 45.4929 15.38 45.6392 15.4489C47.3862 14.5281 47.1883 14.399 47.0678 16.3611C47.1969 16.473 47.3174 16.5677 47.4379 16.6881C49.357 16.2492 49.2021 16.0771 48.5824 17.9532C48.6771 18.0823 48.7804 18.22 48.8664 18.3491C50.8286 18.4179 50.7253 18.2114 49.6409 19.8637C49.6926 20.01 49.7528 20.1735 49.7959 20.3284C51.6805 20.9136 51.6375 20.6813 50.1573 21.9893C50.1831 22.1442 50.1917 22.3164 50.2003 22.4713C51.8613 23.5212 51.8699 23.2888 50.1143 24.1666C50.0885 24.3215 50.054 24.4936 50.0196 24.6485L50.9232 25.6296C51.0609 25.7759 50.9232 25.9825 50.8113 25.9997L49.5033 26.2751C49.443 26.4127 49.3742 26.5677 49.2967 26.714C50.2175 28.4609 50.3466 28.263 48.3759 28.1425C48.2726 28.2716 48.1693 28.3921 48.0661 28.5126C48.505 30.4317 48.6771 30.2768 46.801 29.6572C46.6719 29.7518 46.5342 29.8551 46.4051 29.9411C46.3191 31.9033 46.5256 31.7914 44.8905 30.7157C44.7442 30.7673 44.5807 30.8276 44.4258 30.8706L44.0299 32.1442C44.0041 32.2303 43.9439 32.2905 43.8578 32.3078H43.8664ZM43.1866 29.1838C39.7356 29.9325 36.3105 27.7294 35.5618 24.2613C34.8131 20.7931 37.0248 17.3852 40.4843 16.6365C43.9439 15.8878 47.3604 18.0995 48.1091 21.559C48.8578 25.0186 46.6547 28.4351 43.1866 29.1838Z" fill="#E5BD3C"/>
</svg>
