<svg width="85" height="85" viewBox="0 0 85 85" fill="none" xmlns="http://www.w3.org/2000/svg">
<path fill-rule="evenodd" clip-rule="evenodd" d="M51.4172 84.051C51.0763 84.1241 50.6988 84.0023 50.4796 83.6979L46.5713 79.2896C45.8285 79.3992 45.1223 79.4479 44.4283 79.4966C39.7528 86.8762 40.7756 86.9127 36.9159 79.1313C36.1854 79.0339 35.4914 78.8756 34.7852 78.7295C28.3686 84.6477 29.3548 84.9521 27.6137 76.4036C26.944 76.1357 26.3109 75.8191 25.6412 75.5024C17.9583 79.5575 18.8471 80.1299 19.3585 71.4108C18.8106 70.9724 18.2384 70.4853 17.6905 70.0348C9.19181 71.971 9.91017 72.6773 12.6619 64.4453C12.2357 63.873 11.7974 63.2519 11.42 62.6796C2.72652 62.3143 3.17701 63.2276 7.98641 55.982C7.7429 55.3244 7.48723 54.6059 7.24371 53.9483C-1.06012 51.3545 -0.840983 52.3774 5.66085 46.5932C5.59997 45.8382 5.55126 45.144 5.50256 44.4377C-1.87592 39.7616 -1.91243 40.7845 5.86785 36.9242C5.96526 36.1936 6.12353 35.4995 6.26963 34.7445C0.364413 28.3757 0.0113234 29.362 8.55867 27.6207C8.87524 26.9387 9.19181 26.3055 9.50838 25.6357C5.45387 17.9518 4.88162 18.8407 13.5507 19.3644C14.0378 18.8042 14.4761 18.244 14.9753 17.6839C13.0394 9.18399 12.2844 9.90247 20.5152 12.6668C21.1362 12.2284 21.7084 11.8022 22.3294 11.4125C22.646 2.72995 21.7328 3.1805 29.026 7.97842C29.6835 7.73487 30.3532 7.49133 31.0594 7.23561C33.6528 -1.06942 32.6301 -0.850231 38.4135 5.65253C39.1197 5.60382 39.8624 5.54294 40.5686 5.49423C45.1954 -1.87313 44.1726 -1.90967 48.081 5.85955C48.7629 5.96914 49.5056 6.11528 50.2118 6.2614C56.6284 0.34316 55.6422 -0.00998282 57.3833 8.53859C58.0164 8.86738 58.6983 9.17181 59.3192 9.5006C67.0508 5.43333 66.162 4.861 65.6384 13.5435C66.1985 14.0306 66.7586 14.469 67.27 14.9805C75.7686 13.0442 75.099 12.2771 72.3473 20.5577C72.7734 21.1301 73.2117 21.7511 73.5892 22.3235C82.2704 22.6401 81.82 21.7268 77.0227 29.0211C77.2662 29.6787 77.5219 30.3971 77.7167 31.0669C86.0693 33.6485 85.8501 32.6256 79.2996 38.4221C79.397 39.1162 79.4579 39.8712 79.5066 40.5653C86.8729 45.1927 86.9094 44.1698 79.1413 48.0788C79.0317 48.7607 78.8856 49.5036 78.7395 50.2098L82.7331 54.545C83.3297 55.1783 82.7696 56.1159 82.2217 56.189L76.4139 57.3946C76.1339 58.0156 75.8295 58.6975 75.5008 59.3186C79.5675 67.0513 80.1397 66.1623 71.4097 65.6509C70.9714 66.1989 70.4844 66.7712 70.0217 67.2705C71.9576 75.7703 72.7247 75.1006 64.4452 72.3485C63.8729 72.7747 63.252 73.2131 62.6797 73.5906C62.3145 82.2853 63.2276 81.786 55.9831 77.0246C55.3256 77.2682 54.6072 77.5239 53.9376 77.7187L52.1964 83.3447C52.0747 83.7222 51.819 83.9901 51.4415 84.0754L51.4172 84.051ZM48.4341 70.2174C33.1414 73.5175 18.007 63.7877 14.6952 48.4441C11.3956 33.1492 21.1727 18.0005 36.4654 14.7004C51.8068 11.3881 66.9047 21.1788 70.2043 36.4737C73.5161 51.8173 63.7755 66.9051 48.4341 70.2174Z" fill="#E5BD3C"/>
</svg>
